# xmcd
# Copyright (C) 1995-1998 Ti Kan
#
# Track frame offsets:
#       150
#       13923
#       30861
#       51157
#       68038
#       84033
#       103595
#       125235
#       139448
#       151446
#       173222
#
# Disc length: 2487 seconds
#
# Revision: 0
# Processed by: cddbd v1.5.2PL0 Copyright (c) Steve Scherf et al.
# Submitted via: CD-Import v1.0
#
DISCID=8e09b50b
DTITLE=Farlow - The Moment Never Comes
DYEAR=2009
DGENRE=
TTITLE0=Thousand Ways
TTITLE1=Troubles
TTITLE2=The Moment Never Comes
TTITLE3=I Want You So Bad
TTITLE4=My Last Day
TTITLE5=Dead End
TTITLE6=Fix Me
TTITLE7=Loss Of Hope
TTITLE8=Stop Worrying
TTITLE9=It Takes You
TTITLE10=Don't Leave Me
EXTD=
EXTT0=
EXTT1=
EXTT2=
EXTT3=
EXTT4=
EXTT5=
EXTT6=
EXTT7=
EXTT8=
EXTT9=
EXTT10=
PLAYORDER=
